<?xml version="1.0" encoding="UTF-8"?>
<svg version="1.1" xmlns="http://www.w3.org/2000/svg" width="200" height="200">
<path d="M0 0 C1.15623619 -0.00021904 1.15623619 -0.00021904 2.33583069 -0.0004425 C4.88976838 0.0002555 7.4436336 0.00804264 9.99755859 0.01586914 C11.76589925 0.01773372 13.53424043 0.01915743 15.30258179 0.02015686 C19.96164369 0.02397889 24.62067452 0.03380651 29.27972412 0.04486084 C34.03201884 0.0550817 38.78431856 0.05965593 43.53662109 0.06469727 C52.86475976 0.07542905 62.19287535 0.09250172 71.52099609 0.11352539 C71.61454661 16.92521502 71.68502765 33.7368231 71.72824478 50.54871368 C71.74884697 58.35523697 71.77692249 66.16159828 71.82275391 73.96801758 C71.86269375 80.77419061 71.88844594 87.58024629 71.89735007 94.38653326 C71.90255281 97.98857499 71.91473152 101.59028109 71.94391632 105.19221497 C71.97627608 109.21886924 71.97695095 113.24494454 71.97509766 117.27172852 C71.98947876 118.45856232 72.00385986 119.64539612 72.01867676 120.86819458 C71.98438787 127.75781099 71.24367152 132.26100501 67.52099609 138.11352539 C59.69528825 144.82127497 47.20181874 143.58100978 37.52099609 143.11352539 C31.01562927 142.43764312 25.87971851 140.9092871 20.52099609 137.11352539 C18.42959587 133.92618612 18.26832092 131.31572333 18.26220703 127.55053711 C18.25590271 126.43613251 18.24959839 125.32172791 18.24310303 124.17355347 C18.24715149 122.97554108 18.25119995 121.77752869 18.25537109 120.54321289 C18.25250092 118.69434982 18.25250092 118.69434982 18.24957275 116.80813599 C18.24786373 113.5373427 18.25590978 110.2667397 18.26708984 106.99597168 C18.27099827 104.98740617 18.26709612 102.97901495 18.26025391 100.97045898 C18.24794034 97.11962712 18.24938374 93.26905532 18.25537109 89.41821289 C18.25132263 88.21615204 18.24727417 87.01409119 18.24310303 85.77560425 C18.24940735 84.66750397 18.25571167 83.55940369 18.26220703 82.41772461 C18.26379822 81.43939667 18.2653894 80.46106873 18.26702881 79.45309448 C18.52099609 77.11352539 18.52099609 77.11352539 20.52099609 75.11352539 C23.2265625 74.88647461 23.2265625 74.88647461 26.62255859 74.91821289 C27.83427734 74.9246582 29.04599609 74.93110352 30.29443359 74.93774414 C31.56544922 74.95450195 32.83646484 74.97125977 34.14599609 74.98852539 C35.42474609 74.99754883 36.70349609 75.00657227 38.02099609 75.01586914 C41.18784776 75.03950236 44.35433033 75.0724491 47.52099609 75.11352539 C47.19099609 71.48352539 46.86099609 67.85352539 46.52099609 64.11352539 C43.99185547 64.14833008 43.99185547 64.14833008 41.41162109 64.18383789 C39.19808385 64.20259668 36.98454183 64.22079676 34.77099609 64.23852539 C33.65982422 64.2552832 32.54865234 64.27204102 31.40380859 64.28930664 C29.79892578 64.29897461 29.79892578 64.29897461 28.16162109 64.30883789 C27.17709961 64.31931152 26.19257812 64.32978516 25.17822266 64.34057617 C22.46126498 64.10842157 20.83987097 63.50388812 18.52099609 62.11352539 C18.49633864 58.00179979 18.47815651 53.89010261 18.46606445 49.77832031 C18.4610253 48.37857311 18.45419393 46.97883119 18.44555664 45.57910156 C18.4334729 43.57106762 18.42829803 41.56299582 18.42333984 39.55493164 C18.41810303 38.34522705 18.41286621 37.13552246 18.4074707 35.88916016 C18.52099609 33.11352539 18.52099609 33.11352539 19.52099609 32.11352539 C22.40533429 32.02487331 25.26561767 31.99831243 28.14990234 32.01586914 C29.44624855 32.01799156 29.44624855 32.01799156 30.76878357 32.02015686 C33.54038902 32.025773 36.31191489 32.0383282 39.08349609 32.05102539 C40.95784389 32.05603831 42.83219294 32.06060158 44.70654297 32.06469727 C49.31139153 32.07574767 53.9161803 32.09302309 58.52099609 32.11352539 C58.52099609 28.15352539 58.52099609 24.19352539 58.52099609 20.11352539 C52.36406029 20.15773763 46.20814415 20.22763502 40.05175781 20.32104492 C37.95874153 20.34921952 35.86561955 20.37045148 33.77246094 20.38452148 C30.75840272 20.40599933 27.74561072 20.45267527 24.73193359 20.50415039 C23.80045502 20.50537903 22.86897644 20.50660767 21.90927124 20.50787354 C16.34975527 20.6323835 12.7995386 21.20041897 8.52099609 25.11352539 C5.86898028 29.83074826 6.23234932 34.73652099 6.24633789 39.9934082 C6.24122696 40.98429947 6.23611603 41.97519073 6.23085022 42.99610901 C6.21695842 46.26968439 6.21791112 49.54304905 6.22021484 52.81665039 C6.21632688 55.0972298 6.211992 57.37780848 6.20722961 59.65838623 C6.19976768 64.4398432 6.20005792 69.22122634 6.20532227 74.00268555 C6.21110806 80.11684392 6.19420708 86.23069849 6.17097759 92.34480667 C6.15621091 97.05641433 6.15537271 101.7679494 6.15848732 106.47957611 C6.1579753 108.73292389 6.15275999 110.98627586 6.1426754 113.23960114 C6.13027561 116.39861989 6.13712489 119.55705435 6.14868164 122.71606445 C6.1410379 123.63897781 6.13339417 124.56189117 6.1255188 125.51277161 C6.18288944 132.64332873 7.51564979 138.77128155 11.20849609 144.92602539 C20.51902875 153.73328601 33.78223445 153.4760046 45.83349609 153.48852539 C47.06261719 153.51301758 48.29173828 153.53750977 49.55810547 153.56274414 C59.75237023 153.5950215 70.92890898 152.63945901 78.52099609 145.11352539 C82.65174516 139.25424388 83.12129393 133.67785303 83.13037109 126.67602539 C83.14695267 125.63832504 83.16353424 124.60062469 83.18061829 123.53147888 C83.23025095 120.05876575 83.25099518 116.58652639 83.27099609 113.11352539 C83.29903223 110.65395763 83.32827987 108.19440342 83.35864258 105.73486328 C83.74519465 70.5312218 83.61027237 35.31854342 83.52099609 0.11352539 C95.02146121 0.0208009 106.52183723 -0.05025224 118.02260017 -0.0937233 C123.36302021 -0.11458841 128.7031843 -0.14288673 134.04345703 -0.18823242 C139.19817492 -0.23172807 144.35264677 -0.25561981 149.50753403 -0.26598358 C151.47312162 -0.27336824 153.43869591 -0.28778881 155.40417862 -0.30939484 C158.15972122 -0.33847814 160.91425022 -0.34242854 163.66992188 -0.34057617 C164.48056595 -0.35495728 165.29121002 -0.36933838 166.12641907 -0.38415527 C171.36457784 -0.34611202 174.51295869 0.44016766 178.52099609 4.11352539 C184.03864854 11.60089006 183.08501269 20.35574671 183.03857422 29.25048828 C183.04399954 30.99398889 183.0511245 32.7374849 183.05981445 34.48097229 C183.0780006 39.19994137 183.07100014 43.91855941 183.05829811 48.63753438 C183.04814762 53.5830269 183.05756933 58.52849003 183.06384277 63.47398376 C183.07111253 71.77681863 183.06154839 80.079511 183.04248047 88.38232422 C183.02070586 97.97434464 183.02777009 107.56602503 183.04978609 117.15803725 C183.06795067 125.40285525 183.07049345 133.64757103 183.06003141 141.89240259 C183.05380323 146.81267935 183.05294243 151.73279639 183.06617737 156.65306282 C183.07775089 161.27842405 183.06968275 165.90334766 183.04660034 170.52866173 C183.04132158 172.22374368 183.04281278 173.91886261 183.051651 175.61392975 C183.06262342 177.93244933 183.04882444 180.24957693 183.02893066 182.56800842 C183.02742256 183.86379853 183.02591446 185.15958864 183.02436066 186.49464512 C182.299098 191.70883565 180.36895895 195.13769967 176.73232746 199.02595425 C173.57372872 200.57940792 170.58424267 200.53766874 167.13969421 200.5146637 C166.39392539 200.52146037 165.64815657 200.52825704 164.8797887 200.53525966 C162.37943443 200.5542586 159.87956888 200.55179315 157.37915039 200.54931641 C155.58697885 200.55829235 153.79481311 200.56850021 152.00265503 200.57984924 C147.13271153 200.60637205 142.26292613 200.61338371 137.39291739 200.6152966 C133.32736247 200.61814469 129.26184441 200.62918064 125.19630367 200.63981289 C115.603425 200.66424821 106.01063081 200.67156551 96.41772461 200.66943359 C86.52350288 200.66763162 76.62977206 200.69927862 66.73567456 200.74666458 C58.24041456 200.78590059 49.74531493 200.80198487 41.24996501 200.80006737 C36.17636766 200.7993026 31.1032064 200.80784493 26.02969933 200.83960152 C21.25653898 200.86866176 16.48423102 200.86887228 11.7110405 200.84705162 C9.96111493 200.84391594 8.21113615 200.85099234 6.4613018 200.869133 C-8.40198731 201.01321717 -8.40198731 201.01321717 -12.94963074 197.38047791 C-17.26425657 192.84484288 -17.73007657 187.89451071 -17.73970032 181.8397522 C-17.74352586 181.11763027 -17.74735141 180.39550833 -17.75129288 179.65150392 C-17.76159305 177.23723993 -17.75763645 174.82321509 -17.75366211 172.40893555 C-17.75801026 170.67573324 -17.76319376 168.94253286 -17.76914978 167.20933533 C-17.78254056 162.50474432 -17.78311831 157.80023365 -17.78058648 153.09562731 C-17.77951673 149.16672569 -17.7844003 145.23784033 -17.7891919 141.3089422 C-17.80028757 132.03871277 -17.80072429 122.76852387 -17.79467773 113.49829102 C-17.78863829 103.93876996 -17.80094809 94.3793961 -17.8222478 84.81990016 C-17.83986889 76.60913264 -17.84586432 68.39841196 -17.84261006 60.18762624 C-17.84079772 55.28520606 -17.84342844 50.38289087 -17.8573246 45.48048782 C-17.86990638 40.86920355 -17.8679555 36.25814853 -17.85491371 31.64686775 C-17.85254907 29.95661784 -17.8552786 28.26635177 -17.86353683 26.57612038 C-17.87401587 24.26423728 -17.86589493 21.95312178 -17.85322571 19.64126587 C-17.85339345 18.34895365 -17.85356119 17.05664143 -17.85373402 15.72516823 C-17.30047008 10.39281919 -15.94277778 6.47019386 -11.91650391 2.73852539 C-7.80937275 0.00043796 -4.82140047 -0.0236963 0 0 Z " fill="#FD2F63" transform="translate(17.47900390625,-0.113525390625)"/>
<path d="M0 0 C11.51776638 -0.06950788 23.03548286 -0.12281537 34.55341625 -0.15543652 C39.90165299 -0.17109296 45.24974624 -0.19233104 50.59790039 -0.22631836 C55.75908634 -0.25891227 60.92013425 -0.27685317 66.08141518 -0.28463173 C68.05060308 -0.29017516 70.01978343 -0.30100008 71.98891258 -0.31719017 C74.74692491 -0.33896475 77.50436673 -0.3419669 80.26245117 -0.34057617 C81.07669052 -0.351362 81.89092987 -0.36214783 82.72984314 -0.3732605 C87.31869845 -0.34821937 90.35315967 0.12341874 94 3 C94 3.33 94 3.66 94 4 C64.3 3.67 34.6 3.34 4 3 C4.13019531 12.18457031 4.26039062 21.36914062 4.39453125 30.83203125 C4.46570767 36.66079277 4.5355834 42.48952218 4.59960938 48.31835938 C4.70141084 57.56430891 4.80842284 66.80998172 4.94995117 76.05541992 C5.05301991 82.79005776 5.13789932 89.52464412 5.20140952 96.25977534 C5.23562704 99.82242635 5.27862888 103.3844589 5.34345436 106.94669533 C5.41567844 110.93429656 5.44726493 114.92127057 5.47583008 118.90942383 C5.5031572 120.07612106 5.53048431 121.2428183 5.55863953 122.44487 C5.56845241 129.45377307 4.43986052 134.38659668 1.0770216 140.56568432 C-0.10939128 143.24724936 -0.20459821 145.10067204 0 148 C-1.56119422 148.79423861 -3.12401964 149.58527123 -4.6875 150.375 C-5.55761719 150.81585938 -6.42773438 151.25671875 -7.32421875 151.7109375 C-8.20722656 152.13632813 -9.09023437 152.56171875 -10 153 C-10.70769531 153.35255859 -11.41539063 153.70511719 -12.14453125 154.06835938 C-15.90059563 155.29383319 -19.45891758 155.248228 -23.36328125 155.1953125 C-24.15526413 155.1924826 -24.94724701 155.18965271 -25.76322937 155.18673706 C-28.27980999 155.17558863 -30.79602789 155.15049422 -33.3125 155.125 C-35.02408338 155.11496329 -36.73567237 155.10583864 -38.44726562 155.09765625 C-42.63164906 155.07566681 -46.81576314 155.04117408 -51 155 C-51 154.67 -51 154.34 -51 154 C-50.21987549 153.9906543 -49.43975098 153.98130859 -48.63598633 153.97167969 C-45.02756775 153.91728544 -41.42035145 153.83377646 -37.8125 153.75 C-36.58595703 153.73582031 -35.35941406 153.72164062 -34.09570312 153.70703125 C-23.90860101 153.43824228 -12.59211004 152.52908237 -5 145 C-0.86931473 139.14063977 -0.39970224 133.56438669 -0.390625 126.5625 C-0.37404343 125.52479965 -0.35746185 124.4870993 -0.34037781 123.41795349 C-0.29074514 119.94524036 -0.27000091 116.473001 -0.25 113 C-0.22196386 110.54043224 -0.19271623 108.08087803 -0.16235352 105.62133789 C0.22419855 70.41769641 0.08927628 35.20501803 0 0 Z " fill="#D93964" transform="translate(101,0)"/>
<path d="M0 0 C-0.06002758 2.44012105 -0.14700204 4.87413526 -0.25 7.3125 C-0.26417969 8.00279297 -0.27835938 8.69308594 -0.29296875 9.40429688 C-0.5389923 14.49698442 -0.5389923 14.49698442 -2.56469727 16.70727539 C-5.89128927 18.47312047 -8.90675752 18.35564392 -12.57421875 18.2578125 C-13.29865677 18.25119598 -14.02309479 18.24457947 -14.76948547 18.23776245 C-17.07592815 18.21441119 -19.3814008 18.17068438 -21.6875 18.125 C-24.00419219 18.08997493 -26.32083361 18.05921268 -28.63764954 18.03366089 C-30.07783196 18.01663586 -31.51795682 17.99345502 -32.95793152 17.96365356 C-34.63847395 17.93833353 -36.31965179 17.96402965 -38 18 C-39.71644843 19.71644843 -39.37237075 22.0270547 -39.5625 24.375 C-39.64628906 25.35210937 -39.73007812 26.32921875 -39.81640625 27.3359375 C-40.06142635 32.22591313 -40.03464193 37.10503978 -40 42 C-39.22809326 41.98952637 -38.45618652 41.97905273 -37.66088867 41.96826172 C-34.16979212 41.92673546 -30.67874751 41.90068443 -27.1875 41.875 C-25.97255859 41.85824219 -24.75761719 41.84148438 -23.50585938 41.82421875 C-22.34248047 41.81777344 -21.17910156 41.81132813 -19.98046875 41.8046875 C-18.37014771 41.78897705 -18.37014771 41.78897705 -16.72729492 41.77294922 C-14 42 -14 42 -11 44 C-10.7421875 46.86328125 -10.7421875 46.86328125 -10.875 50.3125 C-11.01519226 54.41078694 -10.97401308 58.00654637 -10 62 C-10.66 62 -11.32 62 -12 62 C-12 61.34 -12 60.68 -12 60 C-21.57 60.33 -31.14 60.66 -41 61 C-41.09172487 68.63609536 -41.1713992 76.27028719 -41.21972656 83.90649414 C-41.23986774 86.50519276 -41.26718228 89.10384593 -41.30175781 91.70239258 C-41.35016388 95.43321942 -41.37294401 99.1634482 -41.390625 102.89453125 C-41.41127014 104.06023148 -41.43191528 105.2259317 -41.45318604 106.42695618 C-41.45348816 107.50785019 -41.45379028 108.5887442 -41.45410156 109.70239258 C-41.46298401 110.65503494 -41.47186646 111.60767731 -41.48101807 112.58918762 C-41.22711765 115.16947506 -41.22711765 115.16947506 -38.97161865 116.70610046 C-38.3209845 117.13308731 -37.67035034 117.56007416 -37 118 C-37 118.66 -37 119.32 -37 120 C-29.34125934 121.24063784 -21.74288354 121.11179358 -14 121.0625 C-12.63932456 121.05747487 -11.27864733 121.05291376 -9.91796875 121.04882812 C-6.61193275 121.03710459 -3.30598999 121.02069427 0 121 C0 120.34 0 119.68 0 119 C1.65 119 3.3 119 5 119 C-1.76391299 125.54572224 -10.10921767 125.30065022 -19.04394531 125.234375 C-27.64766701 125.03984903 -34.8912265 124.03538123 -42 119 C-44.09140022 115.81266073 -44.25267518 113.20219794 -44.25878906 109.43701172 C-44.26509338 108.32260712 -44.27139771 107.20820251 -44.27789307 106.06002808 C-44.2738446 104.86201569 -44.26979614 103.6640033 -44.265625 102.4296875 C-44.26753845 101.19711212 -44.2694519 99.96453674 -44.27142334 98.6946106 C-44.27313237 95.42381731 -44.26508632 92.15321431 -44.25390625 88.88244629 C-44.24999782 86.87388078 -44.25389997 84.86548956 -44.26074219 82.85693359 C-44.27305576 79.00610173 -44.27161235 75.15552993 -44.265625 71.3046875 C-44.26967346 70.10262665 -44.27372192 68.9005658 -44.27789307 67.66207886 C-44.27158875 66.55397858 -44.26528442 65.4458783 -44.25878906 64.30419922 C-44.25719788 63.32587128 -44.25560669 62.34754333 -44.25396729 61.33956909 C-44 59 -44 59 -42 57 C-39.29443359 56.77294922 -39.29443359 56.77294922 -35.8984375 56.8046875 C-34.08085938 56.81435547 -34.08085938 56.81435547 -32.2265625 56.82421875 C-30.95554687 56.84097656 -29.68453125 56.85773438 -28.375 56.875 C-27.09625 56.88402344 -25.8175 56.89304688 -24.5 56.90234375 C-21.33314833 56.92597697 -18.16666576 56.95892371 -15 57 C-15.33 53.37 -15.66 49.74 -16 46 C-18.52914062 46.03480469 -18.52914062 46.03480469 -21.109375 46.0703125 C-23.32291224 46.08907129 -25.53645427 46.10727137 -27.75 46.125 C-28.86117187 46.14175781 -29.97234375 46.15851563 -31.1171875 46.17578125 C-32.72207031 46.18544922 -32.72207031 46.18544922 -34.359375 46.1953125 C-35.34389648 46.20578613 -36.32841797 46.21625977 -37.34277344 46.22705078 C-40.05973111 45.99489618 -41.68112513 45.39036273 -44 44 C-44.02465746 39.8882744 -44.04283959 35.77657722 -44.05493164 31.66479492 C-44.0599708 30.26504772 -44.06680216 28.8653058 -44.07543945 27.46557617 C-44.0875232 25.45754223 -44.09269807 23.44947043 -44.09765625 21.44140625 C-44.10551147 19.62684937 -44.10551147 19.62684937 -44.11352539 17.77563477 C-44 15 -44 15 -43 14 C-40.1156618 13.91134792 -37.25537842 13.88478704 -34.37109375 13.90234375 C-33.07474754 13.90446617 -33.07474754 13.90446617 -31.75221252 13.90663147 C-28.98060708 13.91224761 -26.2090812 13.92480281 -23.4375 13.9375 C-21.5631522 13.94251292 -19.68880315 13.94707619 -17.81445312 13.95117188 C-13.20960456 13.96222228 -8.60481579 13.9794977 -4 14 C-4 10.04 -4 6.08 -4 2 C-10.15680889 2.06898492 -16.31294568 2.15700552 -22.46923828 2.26245117 C-24.56226124 2.29564549 -26.65537253 2.32369445 -28.74853516 2.34643555 C-31.76242612 2.38008231 -34.77551163 2.43240393 -37.7890625 2.48828125 C-39.18628036 2.49786613 -39.18628036 2.49786613 -40.61172485 2.50764465 C-45.82741569 2.6249018 -49.44499667 3.16877869 -54 6 C-54 5.01 -54 4.02 -54 3 C-48.50196908 -0.44573879 -43.70739033 -0.48507425 -37.421875 -0.546875 C-36.41408997 -0.56719788 -35.40630493 -0.58752075 -34.36798096 -0.60845947 C-32.24673935 -0.6485434 -30.12535798 -0.6817524 -28.00390625 -0.70849609 C-24.74694834 -0.75003892 -21.49091519 -0.81265656 -18.234375 -0.87890625 C-16.17189626 -0.9152881 -14.10939621 -0.95048585 -12.046875 -0.984375 C-11.06982605 -1.0019989 -10.0927771 -1.0196228 -9.08612061 -1.03778076 C-8.18468323 -1.04819397 -7.28324585 -1.05860718 -6.35449219 -1.06933594 C-5.55984558 -1.08027283 -4.76519897 -1.09120972 -3.94647217 -1.10247803 C-2 -1 -2 -1 0 0 Z " fill="#E7557D" transform="translate(80,18)"/>
<path d="M0 0 C1.15623619 -0.00021904 1.15623619 -0.00021904 2.33583069 -0.0004425 C4.88976838 0.0002555 7.4436336 0.00804264 9.99755859 0.01586914 C11.76589925 0.01773372 13.53424043 0.01915743 15.30258179 0.02015686 C19.96164369 0.02397889 24.62067452 0.03380651 29.27972412 0.04486084 C34.03201884 0.0550817 38.78431856 0.05965593 43.53662109 0.06469727 C52.86475976 0.07542905 62.19287535 0.09250172 71.52099609 0.11352539 C71.59113356 16.94250319 71.64400744 33.77143526 71.67643261 50.60052586 C71.69188957 58.414886 71.71295661 66.22915524 71.74731445 74.04345703 C71.77725277 80.8558459 71.79657961 87.66816892 71.80326158 94.48062176 C71.80716636 98.08647913 71.81631849 101.69214813 71.83818626 105.29794502 C71.86242266 109.32713234 71.86296325 113.3559939 71.86157227 117.38525391 C71.87235809 118.57568298 71.88314392 119.76611206 71.89425659 120.99261475 C71.87123531 127.15245301 71.49566686 131.67302325 68.52099609 137.11352539 C68.19099609 137.11352539 67.86099609 137.11352539 67.52099609 137.11352539 C67.47845253 135.11397793 67.48018826 133.11310903 67.52099609 131.11352539 C67.85099609 130.78352539 68.18099609 130.45352539 68.52099609 130.11352539 C68.62928331 128.45634545 68.66785111 126.79457114 68.67921448 125.13389587 C68.6890033 124.05550949 68.69879211 122.97712311 68.70887756 121.86605835 C68.71463303 120.67275909 68.72038849 119.47945984 68.72631836 118.25 C68.73621796 117.00139694 68.74611755 115.75279388 68.75631714 114.46635437 C68.78256855 111.03264382 68.80440419 107.59895731 68.82431912 104.16520762 C68.84614034 100.58037319 68.87354787 96.99558169 68.90037537 93.41078186 C68.95035468 86.61805609 68.995274 79.82530656 69.03839773 73.03253418 C69.08772544 65.30106996 69.14266007 57.5696488 69.19807732 49.8382262 C69.31197775 33.93003237 69.41879914 18.02179897 69.52099609 2.11352539 C60.14100455 2.19811048 50.7611907 2.29306356 41.38143921 2.40105247 C37.02548371 2.45088101 32.66955089 2.49721166 28.31347656 2.53540039 C24.10529618 2.57242374 19.89731199 2.61882872 15.68930054 2.6715889 C14.08828187 2.69004265 12.48722129 2.70518346 10.88613892 2.71686935 C8.63401433 2.73388742 6.38233029 2.76295731 4.13037109 2.79467773 C2.2117627 2.81466324 2.2117627 2.81466324 0.25439453 2.83505249 C-3.89521734 3.14457061 -7.47704396 4.00065701 -11.47900391 5.11352539 C-12.13900391 8.08352539 -12.79900391 11.05352539 -13.47900391 14.11352539 C-14.46900391 14.11352539 -15.45900391 14.11352539 -16.47900391 14.11352539 C-16.47900391 71.86352539 -16.47900391 129.61352539 -16.47900391 189.11352539 C-16.80900391 189.11352539 -17.13900391 189.11352539 -17.47900391 189.11352539 C-17.5490942 166.15650874 -17.60199222 143.19950975 -17.63444042 120.2424078 C-17.64990734 109.58295553 -17.67099356 98.92356975 -17.70532227 88.26416016 C-17.73522992 78.97309896 -17.75458019 69.68208592 -17.76126939 60.39097792 C-17.76517932 55.47169601 -17.77436464 50.55255187 -17.79619408 45.63331413 C-17.81658076 41.00160307 -17.82283327 36.37008633 -17.81832695 31.73833466 C-17.81915117 30.04001624 -17.82510383 28.34169121 -17.83662033 26.64341164 C-17.85159885 24.32034123 -17.84793837 21.99799961 -17.83976746 19.6749115 C-17.84253284 18.37610518 -17.84529821 17.07729887 -17.84814739 15.73913479 C-17.30419661 10.39662398 -15.94997716 6.47686646 -11.91650391 2.73852539 C-7.80937275 0.00043796 -4.82140047 -0.0236963 0 0 Z " fill="#F17597" transform="translate(17.47900390625,-0.113525390625)"/>
<path d="M0 0 C3.73003123 3.22139061 4.88517753 6.49343558 5.25726891 11.37557793 C5.26062059 12.67451044 5.26397228 13.97344296 5.26742554 15.31173706 C5.27195665 16.03794254 5.27648776 16.76414803 5.28115618 17.51235974 C5.29379432 19.94043382 5.29218021 22.36828343 5.29052734 24.79638672 C5.29651294 26.53944181 5.30331856 28.28249425 5.31088257 30.02554321 C5.32854598 34.75698539 5.33323808 39.48835522 5.33451414 44.21982718 C5.33593603 47.17663036 5.34020633 50.13341516 5.34550858 53.09021378 C5.36400952 63.40764788 5.37217905 73.72503032 5.37060547 84.04248047 C5.36940384 93.6565694 5.39051026 103.27043391 5.4220928 112.88446605 C5.44825138 121.1419435 5.45897295 129.39934763 5.45769465 137.65686619 C5.45718492 142.58727161 5.46287421 147.51747754 5.48405075 152.44784164 C5.50342624 157.08543853 5.50356234 161.72264549 5.48901749 166.3602562 C5.48692748 168.06018646 5.49164175 169.76014109 5.5037384 171.4600296 C5.51921045 173.78524146 5.50987125 176.10911201 5.49447632 178.43429565 C5.49556585 179.73398222 5.49665539 181.03366879 5.49777794 182.37273979 C4.77984592 187.6042417 2.82463175 191.42878933 -1.25 194.9375 C-1.8275 195.288125 -2.405 195.63875 -3 196 C-3.66 195.67 -4.32 195.34 -5 195 C-4.67 194.01 -4.34 193.02 -4 192 C-3.34 192 -2.68 192 -2 192 C-2 191.34 -2 190.68 -2 190 C-1.01 190 -0.02 190 1 190 C1.82613102 185.67447238 2.1274511 181.58806028 2.13371277 177.1869812 C2.13597833 176.52626338 2.13824388 175.86554556 2.14057809 175.18480599 C2.14687823 172.98370024 2.14609126 170.7826567 2.14526367 168.58154297 C2.14825798 166.99736451 2.15166114 165.41318679 2.15544128 163.82901001 C2.16426593 159.53063494 2.16661898 155.23227979 2.16725707 150.93389654 C2.16796938 148.2398149 2.1701073 145.54573826 2.17275429 142.85165787 C2.18200837 133.42698091 2.18608981 124.00231807 2.18530273 114.57763672 C2.18470455 105.83806264 2.19520497 97.09855082 2.2110464 88.35899246 C2.22420698 80.82570958 2.22948297 73.29244679 2.22884732 65.75915253 C2.22859447 61.27385975 2.23132524 56.78862209 2.24202538 52.30334091 C2.36325913 26.08783598 2.36325913 26.08783598 0 0 Z " fill="#EC6C91" transform="translate(195,4)"/>
<path d="M0 0 C0.99 0.33 1.98 0.66 3 1 C3.02685938 3.14576637 3.04633088 5.29162645 3.0625 7.4375 C3.07410156 8.63246094 3.08570312 9.82742187 3.09765625 11.05859375 C3 14 3 14 2 15 C0.00217874 15.15825258 -2.00088834 15.25119171 -4.00390625 15.31640625 C-5.82631836 15.37924805 -5.82631836 15.37924805 -7.68554688 15.44335938 C-8.96494141 15.48267578 -10.24433594 15.52199219 -11.5625 15.5625 C-13.48739258 15.62727539 -13.48739258 15.62727539 -15.45117188 15.69335938 C-18.63399853 15.799848 -21.81690674 15.90185962 -25 16 C-25.10124722 23.63538311 -25.17140114 31.27059377 -25.21972656 38.90649414 C-25.23986774 41.50519276 -25.26718228 44.10384593 -25.30175781 46.70239258 C-25.35016388 50.43321942 -25.37294401 54.1634482 -25.390625 57.89453125 C-25.41127014 59.06023148 -25.43191528 60.2259317 -25.45318604 61.42695618 C-25.45348816 62.50785019 -25.45379028 63.5887442 -25.45410156 64.70239258 C-25.46298401 65.65503494 -25.47186646 66.60767731 -25.48101807 67.58918762 C-25.22711765 70.16947506 -25.22711765 70.16947506 -22.97161865 71.70610046 C-22.3209845 72.13308731 -21.67035034 72.56007416 -21 73 C-21 73.66 -21 74.32 -21 75 C-13.34125934 76.24063784 -5.74288354 76.11179358 2 76.0625 C3.36067544 76.05747487 4.72135267 76.05291376 6.08203125 76.04882812 C9.38806725 76.03710459 12.69401001 76.02069427 16 76 C16 75.34 16 74.68 16 74 C17.65 74 19.3 74 21 74 C14.23608701 80.54572224 5.89078233 80.30065022 -3.04394531 80.234375 C-11.64766701 80.03984903 -18.8912265 79.03538123 -26 74 C-28.09140022 70.81266073 -28.25267518 68.20219794 -28.25878906 64.43701172 C-28.26509338 63.32260712 -28.27139771 62.20820251 -28.27789307 61.06002808 C-28.2738446 59.86201569 -28.26979614 58.6640033 -28.265625 57.4296875 C-28.26753845 56.19711212 -28.2694519 54.96453674 -28.27142334 53.6946106 C-28.27313237 50.42381731 -28.26508632 47.15321431 -28.25390625 43.88244629 C-28.24999782 41.87388078 -28.25389997 39.86548956 -28.26074219 37.85693359 C-28.27305576 34.00610173 -28.27161235 30.15552993 -28.265625 26.3046875 C-28.26967346 25.10262665 -28.27372192 23.9005658 -28.27789307 22.66207886 C-28.27158875 21.55397858 -28.26528442 20.4458783 -28.25878906 19.30419922 C-28.25719788 18.32587128 -28.25560669 17.34754333 -28.25396729 16.33956909 C-28 14 -28 14 -26 12 C-23.29443359 11.77294922 -23.29443359 11.77294922 -19.8984375 11.8046875 C-18.08085938 11.81435547 -18.08085938 11.81435547 -16.2265625 11.82421875 C-14.95554687 11.84097656 -13.68453125 11.85773438 -12.375 11.875 C-11.09625 11.88402344 -9.8175 11.89304687 -8.5 11.90234375 C-5.33325421 11.92597618 -2.16660415 11.96184814 1 12 C0.67 8.04 0.34 4.08 0 0 Z " fill="#DA718C" transform="translate(64,63)"/>
<path d="M0 0 C1.65 0 3.3 0 5 0 C4.67566483 0.78454056 4.35132965 1.56908112 4.01716614 2.37739563 C2.72197261 6.99018557 2.7125648 11.19483882 2.7253418 15.96166992 C2.7176754 17.44340698 2.7176754 17.44340698 2.70985413 18.95507812 C2.69598006 22.21360371 2.69691383 25.47191717 2.69921875 28.73046875 C2.69532954 31.00482766 2.69099441 33.27918584 2.68623352 35.55354309 C2.67877519 40.32063144 2.67905902 45.08764574 2.68432617 49.85473633 C2.69010857 55.94288641 2.67321746 62.03073105 2.6499815 68.11883068 C2.63519547 72.81764987 2.63437929 77.51639642 2.63749123 82.21523476 C2.63698008 84.45855627 2.63178136 86.70188207 2.62167931 88.94518089 C2.6092431 92.09410345 2.61615054 95.2424431 2.62768555 98.39135742 C2.62004181 99.30550919 2.61239807 100.21966095 2.60452271 101.16151428 C2.65794674 107.81148405 3.99795503 113.67073101 6 120 C5.34 120 4.68 120 4 120 C0.0574085 113.39976278 -0.56152628 108.41874451 -0.45410156 100.81054688 C-0.45468567 99.71697876 -0.45526978 98.62341064 -0.45587158 97.4967041 C-0.45309825 93.90372308 -0.42204032 90.31158503 -0.390625 86.71875 C-0.38315998 84.21912082 -0.37746828 81.71948577 -0.37347412 79.21984863 C-0.35979343 73.32675336 -0.32830998 67.43396635 -0.28807616 61.54099703 C-0.23883888 54.1680098 -0.21746603 46.79498474 -0.1953125 39.421875 C-0.15247828 26.28109817 -0.08502601 13.14056812 0 0 Z " fill="#E57A96" transform="translate(21,24)"/>
<path d="M0 0 C1.08683075 -0.0003616 1.08683075 -0.0003616 2.19561768 -0.00073051 C4.51075082 0.00074676 6.82555046 0.01590543 9.140625 0.03173828 C10.58202968 0.03468365 12.0234365 0.03672105 13.46484375 0.0378418 C18.7734704 0.04827187 24.08205107 0.07619437 29.390625 0.10205078 C41.270625 0.14330078 53.150625 0.18455078 65.390625 0.22705078 C65.390625 42.46705078 65.390625 84.70705078 65.390625 128.22705078 C65.060625 128.22705078 64.730625 128.22705078 64.390625 128.22705078 C64.390625 86.64705078 64.390625 45.06705078 64.390625 2.22705078 C41.290625 1.89705078 18.190625 1.56705078 -5.609375 1.22705078 C-5.939375 1.88705078 -6.269375 2.54705078 -6.609375 3.22705078 C-7.599375 4.71205078 -7.599375 4.71205078 -8.609375 6.22705078 C-11.87891702 5.66333664 -13.43513383 4.72742812 -15.609375 2.22705078 C-10.24721565 0.72720808 -5.60975898 -0.01947833 0 0 Z " fill="#F23467" transform="translate(21.609375,1.77294921875)"/>
<path d="M0 0 C0.33 0 0.66 0 1 0 C1.00331015 0.8897521 1.00662029 1.7795042 1.01003075 2.69621849 C1.09115743 24.31939316 1.18321565 45.942497 1.28752708 67.56557274 C1.33770556 78.02221582 1.38414776 88.47885085 1.421875 98.93554688 C1.45475727 108.04678161 1.49456742 117.15795483 1.54279006 126.26912177 C1.56809262 131.09596036 1.58986268 135.92275795 1.60334396 140.74964523 C1.61613037 145.28861426 1.63814736 149.82744294 1.66738319 154.36633492 C1.67648586 156.03608882 1.68215543 157.70586533 1.68421364 159.37564278 C1.68751732 161.64783712 1.70294242 163.91962893 1.7215271 166.19174194 C1.72705786 167.46565985 1.73258862 168.73957775 1.73828697 170.05209923 C1.6929072 173.1207778 1.6929072 173.1207778 4 175 C4.40047444 177.32275177 4.7397104 179.65739357 5 182 C6.32 182 7.64 182 9 182 C9 182.99 9 183.98 9 185 C5.72510019 184.75741483 4.77755612 183.77923773 2.39304829 181.41275597 C-0.43969682 177.8783932 -0.61730144 175.0666876 -0.60127258 170.52090454 C-0.60768077 169.42290624 -0.60768077 169.42290624 -0.61421841 168.30272615 C-0.6224252 165.86085394 -0.5950045 163.42071661 -0.56762695 160.97900391 C-0.56621597 159.22444703 -0.56700944 157.4698872 -0.56983948 155.71533203 C-0.57127308 150.95938127 -0.54189233 146.20406202 -0.50696969 141.44825792 C-0.47569692 136.47549682 -0.47277472 131.50272097 -0.46684265 126.52987671 C-0.45130693 117.11637291 -0.41028206 107.70315971 -0.3600952 98.28978384 C-0.30419336 87.57163094 -0.2767131 76.8534641 -0.25161803 66.13520169 C-0.19936604 44.08997231 -0.11142894 22.04500447 0 0 Z " fill="#D24166" transform="translate(1,14)"/>
<path d="M0 0 C22.01082326 -0.12032643 22.01082326 -0.12032643 31.39257812 -0.14648438 C37.79442808 -0.16441839 44.19614932 -0.18563548 50.59790039 -0.22631836 C55.75908634 -0.25891227 60.92013425 -0.27685317 66.08141518 -0.28463173 C68.05060308 -0.29017516 70.01978343 -0.30100008 71.98891258 -0.31719017 C74.74692491 -0.33896475 77.50436673 -0.3419669 80.26245117 -0.34057617 C81.07669052 -0.351362 81.89092987 -0.36214783 82.72984314 -0.3732605 C87.34215574 -0.34809137 90.29225165 0.19397596 94 3 C92.25 3.625 92.25 3.625 90 4 C89.46389099 3.68431061 88.92778198 3.36862122 88.37542725 3.04336548 C84.90419315 1.51868573 81.47045419 1.69146925 77.74316406 1.68115234 C76.91352646 1.67110672 76.08388885 1.6610611 75.22911072 1.65071106 C72.49128909 1.61986018 69.75356533 1.60283864 67.015625 1.5859375 C65.11561235 1.56722738 63.21560803 1.54765409 61.31561279 1.5272522 C56.31798202 1.47590849 51.3203243 1.4362947 46.3225708 1.39910889 C41.22148968 1.35908332 36.12052088 1.30798436 31.01953125 1.2578125 C21.0130997 1.16102668 11.00660477 1.07663033 1 1 C1.02963837 2.18229691 1.05927673 3.36459381 1.08981323 4.5827179 C1.20152442 9.05517449 1.31122458 13.52767871 1.42037964 18.00019836 C1.46749658 19.91982817 1.51512739 21.83944546 1.56332397 23.75904846 C2.73490458 70.48556296 2.73490458 70.48556296 1 80 C0.67 80 0.34 80 0 80 C0 53.6 0 27.2 0 0 Z " fill="#F0A0B7" transform="translate(101,0)"/>
<path d="M0 0 C0.33 0 0.66 0 1 0 C1.33 12.87 1.66 25.74 2 39 C2.33 39 2.66 39 3 39 C3.3008443 44.81632315 2.77997479 47.78754728 0 53 C-0.12530965 55.6173537 -0.12530965 55.6173537 0 58 C-1.56119422 58.79423861 -3.12401964 59.58527123 -4.6875 60.375 C-5.55761719 60.81585938 -6.42773438 61.25671875 -7.32421875 61.7109375 C-8.20722656 62.13632813 -9.09023437 62.56171875 -10 63 C-10.70769531 63.35255859 -11.41539063 63.70511719 -12.14453125 64.06835938 C-15.90059563 65.29383319 -19.45891758 65.248228 -23.36328125 65.1953125 C-24.15526413 65.1924826 -24.94724701 65.18965271 -25.76322937 65.18673706 C-28.27980999 65.17558863 -30.79602789 65.15049422 -33.3125 65.125 C-35.02408338 65.11496329 -36.73567237 65.10583864 -38.44726562 65.09765625 C-42.63164906 65.07566681 -46.81576314 65.04117408 -51 65 C-51 64.67 -51 64.34 -51 64 C-50.21987549 63.9906543 -49.43975098 63.98130859 -48.63598633 63.97167969 C-45.02756775 63.91728544 -41.42035145 63.83377646 -37.8125 63.75 C-35.97268555 63.72873047 -35.97268555 63.72873047 -34.09570312 63.70703125 C-23.90860101 63.43824228 -12.59211004 62.52908237 -5 55 C-0.71124676 48.99640086 -0.39957552 43.12609155 -0.390625 35.9375 C-0.37408875 34.90560547 -0.35755249 33.87371094 -0.34051514 32.81054688 C-0.29223739 29.54030281 -0.27070866 26.2705231 -0.25 23 C-0.22182349 20.77211231 -0.19189372 18.54424606 -0.16015625 16.31640625 C-0.08648412 10.87768791 -0.03472337 5.43909907 0 0 Z " fill="#ECAEBF" transform="translate(101,90)"/>
<path d="M0 0 C1.64510941 0.00015915 3.29022379 0.00585551 4.93530273 0.01586914 C6.23164894 0.01799156 6.23164894 0.01799156 7.55418396 0.02015686 C10.32578941 0.025773 13.09731528 0.0383282 15.86889648 0.05102539 C17.74324428 0.05603831 19.61759334 0.06060158 21.49194336 0.06469727 C26.09679192 0.07574767 30.70158069 0.09302309 35.30639648 0.11352539 C35.30639648 0.44352539 35.30639648 0.77352539 35.30639648 1.11352539 C23.09639648 1.44352539 10.88639648 1.77352539 -1.69360352 2.11352539 C-2.02360352 11.35352539 -2.35360352 20.59352539 -2.69360352 30.11352539 C5.88639648 30.11352539 14.46639648 30.11352539 23.30639648 30.11352539 C23.30639648 30.44352539 23.30639648 30.77352539 23.30639648 31.11352539 C18.22590039 32.13452541 13.33942657 32.29681819 8.18139648 32.30102539 C7.3834668 32.31327148 6.58553711 32.32551758 5.76342773 32.33813477 C4.9912793 32.34006836 4.21913086 32.34200195 3.42358398 32.34399414 C2.38113525 32.35015747 2.38113525 32.35015747 1.31762695 32.35644531 C-1.02595819 32.07338301 -2.65124548 31.26861076 -4.69360352 30.11352539 C-4.71826097 26.00179979 -4.7364431 21.89010261 -4.74853516 17.77832031 C-4.75357431 16.37857311 -4.76040568 14.97883119 -4.76904297 13.57910156 C-4.78112671 11.57106762 -4.78630158 9.56299582 -4.79125977 7.55493164 C-4.79649658 6.34522705 -4.8017334 5.13552246 -4.80712891 3.88916016 C-4.63450155 -0.3314858 -4.38385605 0.13474077 0 0 Z " fill="#DF8DA3" transform="translate(40.693603515625,31.886474609375)"/>
<path d="M0 0 C2.5 1.375 2.5 1.375 5 3 C5 3.66 5 4.32 5 5 C12.65874066 6.24063784 20.25711646 6.11179358 28 6.0625 C29.36067544 6.05747487 30.72135267 6.05291376 32.08203125 6.04882812 C35.38806725 6.03710459 38.69401001 6.02069427 42 6 C42 5.34 42 4.68 42 4 C43.65 4 45.3 4 47 4 C40.23608701 10.54572224 31.89078233 10.30065022 22.95605469 10.234375 C14.33465428 10.03944932 7.13972369 9.01299748 0 4 C-0.33 3.01 -0.66 2.02 -1 1 C-0.67 0.67 -0.34 0.34 0 0 Z " fill="#E35F83" transform="translate(38,133)"/>
<path d="M0 0 C0.99 0.33 1.98 0.66 3 1 C3.02685938 3.14576637 3.04633088 5.29162645 3.0625 7.4375 C3.07410156 8.63246094 3.08570312 9.82742187 3.09765625 11.05859375 C3 14 3 14 2 15 C-0.0708472 15.1584265 -2.14678029 15.25124422 -4.22265625 15.31640625 C-5.48271484 15.35830078 -6.74277344 15.40019531 -8.04101562 15.44335938 C-9.38150736 15.48317596 -10.7220022 15.52288814 -12.0625 15.5625 C-13.40691523 15.60568042 -14.7513166 15.64929456 -16.09570312 15.69335938 C-19.3970234 15.79985358 -22.69842236 15.9018646 -26 16 C-26.33 15.01 -26.66 14.02 -27 13 C-26 12 -26 12 -23.40795898 11.88647461 C-22.28204346 11.89171143 -21.15612793 11.89694824 -19.99609375 11.90234375 C-18.78115234 11.90556641 -17.56621094 11.90878906 -16.31445312 11.91210938 C-15.03505859 11.92048828 -13.75566406 11.92886719 -12.4375 11.9375 C-11.15423828 11.94201172 -9.87097656 11.94652344 -8.54882812 11.95117188 C-5.3658658 11.96300445 -2.18292726 11.98094056 1 12 C0.67 8.04 0.34 4.08 0 0 Z " fill="#E27A97" transform="translate(64,63)"/>
<path d="M0 0 C0.60585938 0.33773437 1.21171875 0.67546875 1.8359375 1.0234375 C7.21710517 3.88787444 12.03686572 5.69997905 18.06640625 6.640625 C20 7 20 7 21 8 C22.41327947 8.15620555 23.8335459 8.25056173 25.25390625 8.31640625 C26.10791016 8.35830078 26.96191406 8.40019531 27.84179688 8.44335938 C28.73962891 8.48267578 29.63746094 8.52199219 30.5625 8.5625 C31.46419922 8.60568359 32.36589844 8.64886719 33.29492188 8.69335938 C35.52978485 8.79978142 37.76476308 8.90179988 40 9 C37.56589694 11.91757947 37.56589694 11.91757947 35.07397461 12.28051758 C34.35733643 12.23564209 33.64069824 12.1907666 32.90234375 12.14453125 C32.10538086 12.10038086 31.30841797 12.05623047 30.48730469 12.01074219 C29.64586914 11.94532227 28.80443359 11.87990234 27.9375 11.8125 C27.07930664 11.75352539 26.22111328 11.69455078 25.33691406 11.63378906 C8.10171629 10.34621456 8.10171629 10.34621456 1 4 C0.31640625 1.8359375 0.31640625 1.8359375 0 0 Z " fill="#E0587D" transform="translate(29,146)"/>
<path d="M0 0 C0.33 0 0.66 0 1 0 C1.00808685 0.73471527 1.01617371 1.46943054 1.02450562 2.22640991 C1.10237093 9.1425207 1.18963694 16.05845546 1.28752708 22.97430992 C1.33752304 26.53003393 1.38385244 30.08572776 1.421875 33.64160156 C1.46572333 37.72740639 1.52538806 41.81284581 1.5859375 45.8984375 C1.59748871 47.17866791 1.60903992 48.45889832 1.62094116 49.77792358 C1.64081085 50.95899689 1.66068054 52.14007019 1.68115234 53.35693359 C1.69447601 54.40062103 1.70779968 55.44430847 1.7215271 56.5196228 C1.75844259 59.17430962 1.75844259 59.17430962 4 61 C4.40047444 63.32275177 4.7397104 65.65739357 5 68 C6.32 68 7.64 68 9 68 C9 68.99 9 69.98 9 71 C5.99669754 70.77753315 4.7387239 69.78579605 2.38598633 67.85693359 C-1.75843575 62.67159448 -0.60912993 55.69767993 -0.48828125 49.4140625 C-0.47894595 47.98775475 -0.47183322 46.56143088 -0.46684265 45.13510132 C-0.44782851 41.3962919 -0.39877859 37.65846672 -0.34332275 33.92004395 C-0.29200796 30.09917513 -0.26930271 26.27814595 -0.24414062 22.45703125 C-0.19065211 14.97090735 -0.10541 7.48559203 0 0 Z " fill="#D14367" transform="translate(1,128)"/>
<path d="M0 0 C0.66 0.33 1.32 0.66 2 1 C1.85975781 3.47960136 1.7130815 5.95852402 1.5625 8.4375 C1.52318359 9.14455078 1.48386719 9.85160156 1.44335938 10.58007812 C1.11328125 15.88671875 1.11328125 15.88671875 0 17 C-2.8843382 17.08865208 -5.74462158 17.11521296 -8.62890625 17.09765625 C-9.92525246 17.09553383 -9.92525246 17.09553383 -11.24778748 17.09336853 C-14.01939292 17.08775239 -16.7909188 17.07519719 -19.5625 17.0625 C-21.4368478 17.05748708 -23.31119685 17.05292381 -25.18554688 17.04882812 C-29.79039544 17.03777772 -34.39518421 17.0205023 -39 17 C-39 16.67 -39 16.34 -39 16 C-26.79 15.67 -14.58 15.34 -2 15 C-2 10.38 -2 5.76 -2 1 C-1.34 0.67 -0.68 0.34 0 0 Z " fill="#D33F66" transform="translate(78,17)"/>
<path d="M0 0 C0.495 1.98 0.495 1.98 1 4 C-7.84058935 9.25265426 -16.61514097 8.45572043 -26.5625 8.25 C-28.25583826 8.22990488 -29.94919953 8.21165943 -31.64257812 8.1953125 C-35.76229372 8.15155338 -39.88088951 8.0826939 -44 8 C-44 7.67 -44 7.34 -44 7 C-43.21987549 6.9906543 -42.43975098 6.98130859 -41.63598633 6.97167969 C-38.02756775 6.91728544 -34.42035145 6.83377646 -30.8125 6.75 C-28.97268555 6.72873047 -28.97268555 6.72873047 -27.09570312 6.70703125 C-17.62883206 6.45724573 -8.05173029 5.36782019 0 0 Z " fill="#E886A4" transform="translate(94,147)"/>
<path d="M0 0 C0.33 0 0.66 0 1 0 C1.09902133 5.74742629 1.17154082 11.49435392 1.21972656 17.24243164 C1.23981774 19.19694673 1.26709589 21.1514019 1.30175781 23.10571289 C1.35038601 25.91828208 1.3729936 28.73005527 1.390625 31.54296875 C1.41127014 32.41398727 1.43191528 33.2850058 1.45318604 34.18241882 C1.45469729 38.28651935 1.34409019 40.44110284 -0.85253906 44.0090332 C-3.14373103 46.13325677 -5.0278576 47.09184538 -8 48 C-7.67 46.68 -7.34 45.36 -7 44 C-6.34 44 -5.68 44 -5 44 C-5 43.34 -5 42.68 -5 42 C-4.01 42 -3.02 42 -2 42 C-1.06266595 37.17656569 -0.79182198 32.43799588 -0.68359375 27.5390625 C-0.66281265 26.74849457 -0.64203156 25.95792664 -0.62062073 25.1434021 C-0.55564418 22.63734983 -0.49648357 20.13119976 -0.4375 17.625 C-0.39426532 15.91795895 -0.35064951 14.21092751 -0.30664062 12.50390625 C-0.2000166 8.33603574 -0.09860559 4.16806761 0 0 Z " fill="#D5426A" transform="translate(198,152)"/>
<path d="M0 0 C4.75053511 -0.07435222 9.50072887 -0.12869691 14.25170898 -0.16479492 C15.86667789 -0.17984876 17.48160613 -0.20029648 19.09643555 -0.22631836 C21.42246555 -0.26285286 23.74795341 -0.27976015 26.07421875 -0.29296875 C27.15107185 -0.31619453 27.15107185 -0.31619453 28.24967957 -0.33988953 C32.69410841 -0.34136981 35.41707157 0.35174855 39 3 C37.25 3.625 37.25 3.625 35 4 C34.44151367 3.68627441 33.88302734 3.37254883 33.30761719 3.04931641 C30.11066764 1.59560405 27.3314573 1.67208502 23.828125 1.5859375 C23.1457074 1.56657135 22.46328979 1.5472052 21.76019287 1.5272522 C19.59025392 1.46768902 17.42026123 1.42116554 15.25 1.375 C13.77471703 1.33679869 12.29945585 1.2977457 10.82421875 1.2578125 C7.21634582 1.16200765 3.60830917 1.07789084 0 1 C0 0.67 0 0.34 0 0 Z " fill="#F67A9B" transform="translate(156,0)"/>
<path d="M0 0 C0.33 0 0.66 0 1 0 C1 6.93 1 13.86 1 21 C1.66 21 2.32 21 3 21 C3.99 24.63 4.98 28.26 6 32 C5.34 32 4.68 32 4 32 C-0.27539544 25.06510661 -0.49983304 19.53309327 -0.25 11.5 C-0.23195313 10.39140625 -0.21390625 9.2828125 -0.1953125 8.140625 C-0.1485115 5.42616704 -0.08296375 2.71355284 0 0 Z " fill="#D5466B" transform="translate(21,112)"/>
<path d="M0 0 C0.99 0.33 1.98 0.66 3 1 C-0.75492121 4.75492121 -7.06988528 4.05325448 -12.15625 4.09765625 C-13.93752651 4.09110744 -15.71879094 4.07932828 -17.5 4.0625 C-18.4178125 4.05798828 -19.335625 4.05347656 -20.28125 4.04882812 C-22.52090391 4.03716326 -24.76041545 4.02079614 -27 4 C-27 3.67 -27 3.34 -27 3 C-26.21761963 2.94465088 -25.43523926 2.88930176 -24.62915039 2.83227539 C-21.10657613 2.58041959 -17.58455178 2.32155545 -14.0625 2.0625 C-12.83080078 1.97548828 -11.59910156 1.88847656 -10.33007812 1.79882812 C-9.16025391 1.71181641 -7.99042969 1.62480469 -6.78515625 1.53515625 C-5.70113525 1.456604 -4.61711426 1.37805176 -3.50024414 1.29711914 C-1.06267449 1.26891566 -1.06267449 1.26891566 0 0 Z " fill="#E33968" transform="translate(87,153)"/>
<path d="M0 0 C2.76223278 2.76223278 2.57856291 5.20706617 3 9 C4.32 9 5.64 9 7 9 C7 9.99 7 10.98 7 12 C4.66471585 11.82701599 3.30822418 11.29774631 1.62109375 9.66796875 C-2 5.42788462 -2 5.42788462 -2 3 C-1.34 3 -0.68 3 0 3 C0 2.01 0 1.02 0 0 Z " fill="#E35378" transform="translate(3,187)"/>
<path d="M0 0 C0.33 0 0.66 0 1 0 C1.08728882 3.24983 1.14048658 6.4993575 1.1875 9.75 C1.22520508 11.13058594 1.22520508 11.13058594 1.26367188 12.5390625 C1.27333984 13.42851563 1.28300781 14.31796875 1.29296875 15.234375 C1.3086792 16.05131836 1.32438965 16.86826172 1.34057617 17.70996094 C0.92379459 20.51240627 -0.16195148 21.88847021 -2 24 C-2.04254356 22.00045254 -2.04080783 19.99958364 -2 18 C-1.67 17.67 -1.34 17.34 -1 17 C-0.76298761 14.14122091 -0.57780818 11.30116703 -0.4375 8.4375 C-0.39431641 7.63119141 -0.35113281 6.82488281 -0.30664062 5.99414062 C-0.20024738 3.99631195 -0.09959112 1.9981793 0 0 Z " fill="#D85377" transform="translate(87,113)"/>
<path d="M0 0 C3 3 3 3 3.34057617 4.90112305 C3.32486572 5.59761963 3.30915527 6.29411621 3.29296875 7.01171875 C3.28330078 7.76904297 3.27363281 8.52636719 3.26367188 9.30664062 C3.23853516 10.09232422 3.21339844 10.87800781 3.1875 11.6875 C3.17396484 12.48478516 3.16042969 13.28207031 3.14648438 14.10351562 C3.11117089 16.06929967 3.05736447 18.03473582 3 20 C2.67 20 2.34 20 2 20 C1.34 13.4 0.68 6.8 0 0 Z " fill="#E64C78" transform="translate(195,4)"/>
<path d="M0 0 C0.33 0.99 0.66 1.98 1 3 C-1.45906075 6.87774964 -3.61740632 8.66087415 -8 10 C-7.67 8.68 -7.34 7.36 -7 6 C-6.34 6 -5.68 6 -5 6 C-5 5.34 -5 4.68 -5 4 C-4.01 4 -3.02 4 -2 4 C-1.67 3.01 -1.34 2.02 -1 1 C-0.67 0.67 -0.34 0.34 0 0 Z " fill="#E67191" transform="translate(198,190)"/>
<path d="M0 0 C2.5 1.3125 2.5 1.3125 5 3 C5 3.99 5 4.98 5 6 C6.32 6.33 7.64 6.66 9 7 C8.01 7.495 8.01 7.495 7 8 C2 5.54385965 2 5.54385965 0 4 C-0.33 3.01 -0.66 2.02 -1 1 C-0.67 0.67 -0.34 0.34 0 0 Z " fill="#DC6483" transform="translate(38,133)"/>
<path d="M0 0 C1 2 1 2 1 3 C1.66 3.33 2.32 3.66 3 4 C3 4.66 3 5.32 3 6 C0.64561267 7.42944945 -0.48032433 8.08661261 -3.25 7.625 C-3.8275 7.41875 -4.405 7.2125 -5 7 C-4.34 7 -3.68 7 -3 7 C-2.87625 6.401875 -2.7525 5.80375 -2.625 5.1875 C-2 3 -2 3 0 0 Z " fill="#DD5378" transform="translate(98,142)"/>
<path d="M0 0 C0.66 0.66 1.32 1.32 2 2 C1.625 5.125 1.625 5.125 1 8 C0.01 8 -0.98 8 -2 8 C-2 5.69 -2 3.38 -2 1 C-1.34 0.67 -0.68 0.34 0 0 Z " fill="#F03567" transform="translate(84,129)"/>
<path d="M0 0 C1.65 0 3.3 0 5 0 C3.515 3.96 3.515 3.96 2 8 C1.67 8 1.34 8 1 8 C0.67 5.36 0.34 2.72 0 0 Z " fill="#E16084" transform="translate(21,24)"/>
<path d="M0 0 C2.625 -0.1875 2.625 -0.1875 5 0 C4.01 0.33 3.02 0.66 2 1 C2 1.66 2 2.32 2 3 C1.34 3 0.68 3 0 3 C-0.33 4.32 -0.66 5.64 -1 7 C-1.625 5.1875 -1.625 5.1875 -2 3 C-1.34 2.01 -0.68 1.02 0 0 Z " fill="#F13969" transform="translate(191,193)"/>
<path d="M0 0 C0.33 0 0.66 0 1 0 C1.99 3.63 2.98 7.26 4 11 C3.34 11 2.68 11 2 11 C-0.67927341 6.98108988 -0.15601248 4.75838077 0 0 Z " fill="#F49FB9" transform="translate(23,133)"/>
</svg>
